<svg width="24" height="24" viewBox="0 0 24 24" fill="none" xmlns="http://www.w3.org/2000/svg">
<path d="M17.5867 3.52078C17.5703 3.42276 17.4295 3.42276 17.4131 3.52078C17.1659 5.00392 16.0037 6.16615 14.5205 6.41334C14.4225 6.42967 14.4225 6.57056 14.5205 6.58689C16.0037 6.83409 17.1659 7.99631 17.4131 9.47946C17.4295 9.57747 17.5703 9.57747 17.5867 9.47946C17.8339 7.99631 18.9961 6.83409 20.4792 6.58689C20.5772 6.57056 20.5772 6.42967 20.4792 6.41334C18.9961 6.16615 17.8339 5.00392 17.5867 3.52078Z" fill="#EDEDED"/>
<path d="M11.1983 6.19008C11.1609 5.96605 10.8389 5.96605 10.8016 6.19008C10.2366 9.58013 7.58004 12.2366 4.18999 12.8017C3.96597 12.839 3.96597 13.161 4.18999 13.1984C7.58004 13.7634 10.2366 16.4199 10.8016 19.8099C10.8389 20.034 11.1609 20.034 11.1983 19.8099C11.7633 16.4199 14.4198 13.7634 17.8098 13.1984C18.0339 13.161 18.0339 12.839 17.8098 12.8017C14.4198 12.2366 11.7633 9.58013 11.1983 6.19008Z" fill="#EDEDED"/>
</svg>
