<svg width="106" height="107" viewBox="0 0 106 107" fill="none" xmlns="http://www.w3.org/2000/svg">
<g clip-path="url(#clip0_3889_20303)">
<path d="M85.6162 106.498H20.3817C9.12448 106.498 0 97.3734 0 86.1162V20.8817C0 9.62448 9.12448 0.5 20.3817 0.5H85.6162C96.8734 0.5 105.998 9.62448 105.998 20.8817V86.1162C105.998 97.3734 96.8734 106.498 85.6162 106.498Z" fill="url(#paint0_linear_3889_20303)"/>
<path d="M60.2523 106.5H20.3815C9.12643 106.5 0.00195312 97.3715 0.00195312 86.1164V85.2409L19.1668 52.0523C21.308 48.338 26.6758 48.338 28.8212 52.0523L45.9657 81.7492L46.7013 83.0234L60.2523 106.5Z" fill="#652AC8"/>
<path d="M106 74.5088V86.1137C106 97.3688 96.8737 106.497 85.6165 106.497H33.1465L46.6996 83.0227L56.2608 66.4549L71.1899 40.6079C74.5798 34.744 83.0386 34.744 86.4284 40.6079L106 74.5088Z" fill="#652AC8"/>
<path d="M52.9993 28.0368C52.9993 33.2626 48.7635 37.4983 43.5377 37.4983C38.3119 37.4983 34.0762 33.2626 34.0762 28.0368C34.0762 22.811 38.3119 18.5752 43.5377 18.5752C48.7635 18.5752 52.9993 22.8131 52.9993 28.0368Z" fill="#212224"/>
</g>
<defs>
<linearGradient id="paint0_linear_3889_20303" x1="121.869" y1="-9.43725" x2="-5.83633" y2="-5.37734" gradientUnits="userSpaceOnUse">
<stop stop-color="#FFFFFF"/>
<stop offset="1" stop-color="#FFFFFF"/>
</linearGradient>
<clipPath id="clip0_3889_20303">
<rect width="106" height="106" fill="white" transform="translate(0 0.5)"/>
</clipPath>
</defs>
</svg>
