<svg width="36" height="36" viewBox="0 0 36 36" fill="none" xmlns="http://www.w3.org/2000/svg">
<path d="M29.6016 11.6016C29.6016 5.19427 24.4073 0 18 0C11.5927 0 6.39844 5.19427 6.39844 11.6016C6.39844 17.2875 10.4919 22.0091 15.8906 23.0023V26.4375H10.6172V30.6562H15.8906V36H18H20.1094V30.6562H25.3828V26.4375H20.1094V23.0023C25.5081 22.0091 29.6016 17.2875 29.6016 11.6016ZM18 18.9844C13.9295 18.9844 10.6172 15.672 10.6172 11.6016C10.6172 7.5311 13.9295 4.21875 18 4.21875C22.0705 4.21875 25.3828 7.5311 25.3828 11.6016C25.3828 15.672 22.0705 18.9844 18 18.9844Z" fill="#FF5F96"/>
<path d="M20.1094 30.6562H25.3828V26.4375H20.1094V23.0023C25.5081 22.0091 29.6016 17.2875 29.6016 11.6016C29.6016 5.19427 24.4073 0 18 0V4.21875C22.0705 4.21875 25.3828 7.5311 25.3828 11.6016C25.3828 15.672 22.0705 18.9844 18 18.9844V36H20.1094V30.6562Z" fill="#FF5F96"/>
</svg>
