<svg width="36" height="36" viewBox="0 0 36 36" fill="none" xmlns="http://www.w3.org/2000/svg">
<path d="M14.6561 33C8.23161 33 3.005 27.7734 3.005 21.3489C3.005 14.9247 8.23161 9.69812 14.6561 9.69812C21.0803 9.69812 26.3069 14.9247 26.3069 21.3489C26.3069 27.7734 21.0803 33 14.6561 33ZM14.6561 14.0556C10.6343 14.0556 7.36221 17.3274 7.36221 21.3492C7.36221 25.371 10.634 28.6431 14.6561 28.6431C18.6776 28.6431 21.95 25.3713 21.95 21.3492C21.9497 17.3274 18.6776 14.0556 14.6561 14.0556Z" fill="#50C8EF"/>
<path d="M33.0077 14.6511H28.6505V7.3572H21.3566V3H33.0077V14.6511Z" fill="#50C8EF"/>
<path d="M29.2862 3.63574L32.3668 6.71628L22.8959 16.1872L19.8153 13.1066L29.2862 3.63574Z" fill="#50C8EF"/>
</svg>
