<svg width="215" height="48" viewBox="0 0 215 48" fill="none" xmlns="http://www.w3.org/2000/svg">
<path d="M65.5427 36.9383L72.8714 22.668V24.8098L65.7233 11.5717H74.2133L78.4969 20.4487H78.9872L83.2451 11.5717H91.7093L84.587 24.8098V22.668L91.9157 36.9383H83.4258L78.9872 27.6226H78.4969L74.0326 36.9383H65.5427Z" fill="#F8F8F8"/>
<path d="M104.506 37.6093C100.481 37.6093 97.4958 36.5512 95.5518 34.4352C93.6078 32.3192 92.6358 29.343 92.6358 25.5066V22.8744C92.6358 19.1068 93.6078 16.165 95.5518 14.049C97.4958 11.933 100.472 10.8749 104.48 10.8749C105.513 10.8749 106.476 10.9524 107.371 11.1072C108.265 11.2448 109.091 11.4427 109.848 11.7007C110.605 11.9588 111.267 12.234 111.835 12.5265L112.48 19.0552C111.637 18.5735 110.708 18.1779 109.693 17.8682C108.678 17.5413 107.534 17.3779 106.261 17.3779C104.265 17.3779 102.82 17.8596 101.926 18.823C101.031 19.7864 100.584 21.1799 100.584 23.0034V25.1969C100.584 27.0549 101.057 28.4828 102.003 29.4806C102.949 30.4784 104.429 30.9773 106.442 30.9773C107.698 30.9773 108.824 30.8311 109.822 30.5386C110.837 30.2289 111.801 29.8333 112.712 29.3516L112.093 35.9061C111.198 36.3878 110.097 36.7921 108.79 37.119C107.482 37.4458 106.055 37.6093 104.506 37.6093Z" fill="#F8F8F8"/>
<path d="M124.39 22.6938L122.222 17.894H124.08C124.493 15.7952 125.293 14.1522 126.48 12.9652C127.685 11.7609 129.379 11.1588 131.564 11.1588C131.942 11.1588 132.287 11.1846 132.596 11.2362C132.923 11.2878 133.233 11.348 133.525 11.4169L133.912 19.3907C133.551 19.2875 133.129 19.2187 132.648 19.1843C132.166 19.1326 131.676 19.1068 131.177 19.1068C129.491 19.1068 128.072 19.4251 126.919 20.0616C125.766 20.681 124.923 21.5583 124.39 22.6938ZM116.648 36.9383V11.5717H124.08L123.745 19.6746L124.545 19.7778V36.9383H116.648Z" fill="#F8F8F8"/>
<path d="M144.775 11.5717V26.4872C144.775 27.4162 144.896 28.2247 145.137 28.9129C145.378 29.5838 145.782 30.1085 146.35 30.487C146.917 30.8483 147.691 31.0289 148.672 31.0289C149.498 31.0289 150.212 30.8827 150.814 30.5902C151.433 30.2977 151.949 29.9021 152.362 29.4032C152.792 28.9043 153.111 28.3537 153.317 27.7516L154.53 31.4418H153.188C152.913 32.5772 152.457 33.6094 151.82 34.5384C151.201 35.4674 150.341 36.1986 149.24 36.7319C148.156 37.2652 146.763 37.5318 145.059 37.5318C143.184 37.5318 141.636 37.1706 140.414 36.448C139.21 35.7083 138.316 34.6158 137.731 33.1707C137.163 31.7256 136.879 29.9193 136.879 27.7516V11.5717H144.775ZM161.084 11.5717V36.9383H153.24L153.498 30.5902L153.188 29.8677V11.5717H161.084Z" fill="#F8F8F8"/>
<path d="M175.376 37.5576C173.363 37.5576 171.548 37.377 169.931 37.0157C168.314 36.6717 166.929 36.2674 165.776 35.8029L165.105 29.1709C166.43 29.7214 167.892 30.2203 169.492 30.6676C171.109 31.0977 172.855 31.3128 174.731 31.3128C176.227 31.3128 177.285 31.1579 177.905 30.8483C178.541 30.5214 178.859 30.0225 178.859 29.3516V29.2483C178.859 28.7838 178.696 28.4054 178.369 28.1129C178.06 27.8032 177.509 27.528 176.718 27.2871C175.943 27.0463 174.851 26.7624 173.44 26.4356C171.324 25.9367 169.647 25.3517 168.408 24.6808C167.17 23.9926 166.284 23.1583 165.75 22.1777C165.234 21.1799 164.976 20.0014 164.976 18.6423V18.4359C164.976 15.9242 165.871 14.049 167.66 12.8103C169.449 11.5545 172.081 10.9266 175.556 10.9266C177.518 10.9266 179.281 11.1072 180.846 11.4685C182.412 11.8297 183.728 12.2598 184.795 12.7587L185.466 18.9262C184.227 18.3757 182.842 17.9198 181.311 17.5585C179.797 17.1972 178.206 17.0166 176.537 17.0166C175.522 17.0166 174.722 17.0854 174.137 17.2231C173.569 17.3607 173.165 17.5585 172.924 17.8166C172.701 18.0746 172.589 18.3929 172.589 18.7714V18.8488C172.589 19.2617 172.726 19.6143 173.002 19.9068C173.277 20.1993 173.776 20.4745 174.498 20.7326C175.238 20.9906 176.296 21.2831 177.672 21.61C179.806 22.0745 181.526 22.6078 182.834 23.2099C184.141 23.7948 185.096 24.5604 185.698 25.5066C186.3 26.4356 186.601 27.6742 186.601 29.2225V29.4548C186.601 32.1901 185.681 34.2288 183.84 35.5706C181.999 36.8953 179.178 37.5576 175.376 37.5576Z" fill="#F8F8F8"/>
<path d="M206.694 36.9383V22.0228C206.694 21.0939 206.574 20.2939 206.333 19.6229C206.092 18.9348 205.688 18.4101 205.12 18.0488C204.57 17.6875 203.795 17.5069 202.798 17.5069C201.989 17.5069 201.275 17.6531 200.656 17.9456C200.036 18.2209 199.52 18.6079 199.107 19.1068C198.712 19.5885 198.402 20.1391 198.178 20.7584L196.578 17.0682H198.411C198.669 15.9156 199.107 14.8834 199.727 13.9716C200.346 13.0598 201.198 12.3372 202.281 11.8039C203.382 11.2534 204.759 10.9782 206.41 10.9782C208.303 10.9782 209.851 11.348 211.055 12.0878C212.259 12.8103 213.145 13.8942 213.713 15.3393C214.298 16.7844 214.591 18.5907 214.591 20.7584V36.9383H206.694ZM190.385 36.9383V2.84949H198.23V10.4363L198.101 18.7972L198.282 19.4165V36.9383H190.385Z" fill="#F8F8F8"/>
<path fill-rule="evenodd" clip-rule="evenodd" d="M44.7689 44.812C40.5924 49.0348 33.8442 49.0108 29.6965 44.7584L24.9048 39.8457C24.3759 39.3035 23.5051 39.3004 22.9725 39.8389L18.3225 44.5402C14.1459 48.763 7.39778 48.739 3.25011 44.4867C-0.897559 40.2343 -0.874114 33.3639 3.30247 29.1411L16.4416 15.8568C19.7706 12.4909 24.7333 11.8231 28.7108 13.844C29.7854 14.3665 30.7916 15.0826 31.6788 15.9923L44.8213 29.4665C48.969 33.7188 48.9455 40.5893 44.7689 44.812Z" fill="#F8F8F8"/>
<path fill-rule="evenodd" clip-rule="evenodd" d="M44.7493 3.33723C40.6016 -0.91512 33.8534 -0.939118 29.6769 3.28364L24.8529 8.16097C24.3203 8.69946 23.4495 8.69637 22.9206 8.1541L18.3023 3.41929C14.1546 -0.833057 7.40649 -0.857044 3.2299 3.36571C-0.946683 7.58847 -0.970127 14.4589 3.17754 18.7113L16.2257 32.0887C19.5142 35.4603 24.4376 36.1737 28.4178 34.2198C29.5193 33.7027 30.5521 32.9839 31.4627 32.0632L44.6969 18.6828C48.8735 14.46 48.8969 7.58958 44.7493 3.33723Z" fill="url(#paint0_linear_453_15)"/>
<defs>
<linearGradient id="paint0_linear_453_15" x1="18.7289" y1="51.7324" x2="56.7709" y2="10.3285" gradientUnits="userSpaceOnUse">
<stop stop-color="#9358F7"/>
<stop offset="0.375" stop-color="#7B78F2"/>
<stop offset="0.635" stop-color="#6197EE"/>
<stop offset="0.81" stop-color="#45B5E9"/>
<stop offset="1" stop-color="#10D7E2"/>
</linearGradient>
</defs>
</svg>
