<svg width="24" height="24" viewBox="0 0 24 24" fill="none" xmlns="http://www.w3.org/2000/svg">
<path fill-rule="evenodd" clip-rule="evenodd" d="M7 2.99918C4.79086 2.99918 3 4.79004 3 6.99918V18.7757C3 19.5962 3.99204 20.0071 4.57223 19.4269C6.12671 17.8725 8.23503 16.9992 10.4334 16.9992H17C19.2091 16.9992 21 15.2083 21 12.9992V6.99918C21 4.79004 19.2091 2.99918 17 2.99918H7ZM8 6.99918C7.44772 6.99918 7 7.44689 7 7.99918C7 8.55146 7.44772 8.99918 8 8.99918H16C16.5523 8.99918 17 8.55146 17 7.99918C17 7.44689 16.5523 6.99918 16 6.99918H8ZM8 10.9992C7.44772 10.9992 7 11.4469 7 11.9992C7 12.5515 7.44772 12.9992 8 12.9992H16C16.5523 12.9992 17 12.5515 17 11.9992C17 11.4469 16.5523 10.9992 16 10.9992H8Z" fill="#EDEDED"/>
</svg>
