<svg width="24" height="24" viewBox="0 0 24 24" fill="none" xmlns="http://www.w3.org/2000/svg">
<path d="M10.481 3C10.8077 3 11.0459 3.30951 11.0164 3.63489C11.0056 3.75514 11 3.87692 11 4V4.5C11 4.77614 10.7761 5 10.5 5H5C3.89543 5 3 5.89543 3 7V12.5172C3 12.6953 3.21543 12.7846 3.34142 12.6586L5.29289 10.7071C5.68342 10.3166 6.31658 10.3166 6.70711 10.7071L10.1464 14.1464C10.3417 14.3417 10.6583 14.3417 10.8536 14.1464L11.2929 13.7071C11.6834 13.3166 12.3166 13.3166 12.7071 13.7071L16.6586 17.6586C16.7846 17.7846 17 17.6953 17 17.5172V14.5C17 14.2239 17.2239 14 17.5 14H18.5C18.7761 14 19 14.2239 19 14.5V17C19 19.2091 17.2091 21 15 21H5C2.79086 21 1 19.2091 1 17V7C1 4.79086 2.79086 3 5 3H10.481Z" fill="#EDEDED"/>
<path fill-rule="evenodd" clip-rule="evenodd" d="M15.5 1.5C14.1193 1.5 13 2.61929 13 4V9C13 10.3807 14.1193 11.5 15.5 11.5H20.5C21.8807 11.5 23 10.3807 23 9V4C23 2.61929 21.8807 1.5 20.5 1.5H15.5ZM19.8604 3.52668C19.8664 3.4911 19.9175 3.4911 19.9234 3.52668C20.0132 4.065 20.435 4.48684 20.9733 4.57656C21.0089 4.58249 21.0089 4.63363 20.9733 4.63956C20.435 4.72928 20.0132 5.15112 19.9234 5.68944C19.9175 5.72502 19.8664 5.72502 19.8604 5.68944C19.7707 5.15112 19.3489 4.72928 18.8106 4.63956C18.775 4.63363 18.775 4.58249 18.8106 4.57656C19.3489 4.48684 19.7707 4.065 19.8604 3.52668ZM17.4607 4.49553C17.4743 4.41422 17.5912 4.41422 17.6047 4.49553C17.8098 5.72598 18.774 6.69019 20.0044 6.89527C20.0858 6.90882 20.0858 7.0257 20.0044 7.03925C18.774 7.24432 17.8098 8.20853 17.6047 9.43898C17.5912 9.5203 17.4743 9.5203 17.4607 9.43898C17.2556 8.20853 16.2914 7.24432 15.061 7.03925C14.9797 7.0257 14.9797 6.90882 15.061 6.89527C16.2914 6.69019 17.2556 5.72598 17.4607 4.49553Z" fill="#EDEDED"/>
</svg>
