<svg width="24" height="25" viewBox="0 0 24 25" fill="none" xmlns="http://www.w3.org/2000/svg">
<path d="M17.5864 3.9866C17.5701 3.88858 17.4292 3.88858 17.4129 3.9866C17.1657 5.46974 16.0034 6.63197 14.5203 6.87916C14.4223 6.89549 14.4223 7.03638 14.5203 7.05271C16.0034 7.29991 17.1657 8.46213 17.4129 9.94528C17.4292 10.0433 17.5701 10.0433 17.5864 9.94528C17.8336 8.46213 18.9958 7.29991 20.479 7.05271C20.577 7.03638 20.577 6.89549 20.479 6.87916C18.9958 6.63197 17.8336 5.46974 17.5864 3.9866Z" fill="#EDEDED"/>
<path d="M11.198 6.6559C11.1607 6.43187 10.8387 6.43187 10.8013 6.6559C10.2363 10.0459 7.5798 12.7025 4.18975 13.2675C3.96572 13.3048 3.96572 13.6268 4.18975 13.6642C7.5798 14.2292 10.2363 16.8857 10.8013 20.2757C10.8387 20.4998 11.1607 20.4998 11.198 20.2757C11.763 16.8857 14.4195 14.2292 17.8096 13.6642C18.0336 13.6268 18.0336 13.3048 17.8096 13.2675C14.4195 12.7025 11.763 10.0459 11.198 6.6559Z" fill="#EDEDED"/>
</svg>
