<svg width="24" height="24" viewBox="0 0 24 24" fill="none" xmlns="http://www.w3.org/2000/svg">
<path fill-rule="evenodd" clip-rule="evenodd" d="M7 3C4.79086 3 3 4.79086 3 7V17C3 19.2091 4.79086 21 7 21H17C19.2091 21 21 19.2091 21 17V7C21 4.79086 19.2091 3 17 3H7ZM7 5C5.89543 5 5 5.89543 5 7V12.5172C5 12.6953 5.21543 12.7846 5.34142 12.6586L7.29289 10.7071C7.68342 10.3166 8.31658 10.3166 8.70711 10.7071L12.1464 14.1464C12.3417 14.3417 12.6583 14.3417 12.8536 14.1464L13.2929 13.7071C13.6834 13.3166 14.3166 13.3166 14.7071 13.7071L18.6586 17.6586C18.7846 17.7846 19 17.6953 19 17.5172V7C19 5.89543 18.1046 5 17 5H7Z" fill="#EDEDED"/>
<path d="M17 9C17 10.1046 16.1046 11 15 11C13.8954 11 13 10.1046 13 9C13 7.89543 13.8954 7 15 7C16.1046 7 17 7.89543 17 9Z" fill="#EDEDED"/>
</svg>
