<svg width="24" height="24" viewBox="0 0 24 24" fill="none" xmlns="http://www.w3.org/2000/svg">
<g clip-path="url(#clip0_459_845)">
<g clip-path="url(#clip1_459_845)">
<mask id="mask0_459_845" style="mask-type:luminance" maskUnits="userSpaceOnUse" x="0" y="0" width="24" height="24">
<path d="M23.52 0.480011H0.47998V23.52H23.52V0.480011Z" fill="white"/>
</mask>
<g mask="url(#mask0_459_845)">
<path d="M12 0.480011C5.64783 0.480011 0.47998 5.64786 0.47998 12C0.47998 18.3521 5.64783 23.52 12 23.52C18.3517 23.52 23.5192 18.3521 23.5192 12C23.5192 5.64786 18.3517 0.480011 12 0.480011ZM17.694 7.04248L14.0456 13.8218C13.9956 13.9147 13.9195 13.9912 13.8262 14.0414L7.04728 17.6893C6.96664 17.7326 6.87895 17.7535 6.79163 17.7535C6.65171 17.7535 6.51347 17.6994 6.40961 17.5954C6.24091 17.4269 6.20282 17.1675 6.31578 16.9575L9.96344 10.1788C10.0135 10.0857 10.09 10.0092 10.1831 9.95918L16.9627 6.31118C17.1727 6.19802 17.4317 6.2363 17.6005 6.40481C17.7689 6.57352 17.8074 6.83253 17.694 7.04248Z" fill="#EDEDED"/>
<path d="M12.0116 10.7447C11.3168 10.7447 10.7537 11.3073 10.7537 12.0022C10.7537 12.6969 11.317 13.2604 12.0116 13.2604C12.7058 13.2604 13.2691 12.6969 13.2691 12.0022C13.2691 11.3073 12.7058 10.7447 12.0116 10.7447Z" fill="#EDEDED"/>
</g>
</g>
</g>
<defs>
<clipPath id="clip0_459_845">
<rect width="24" height="24" fill="white"/>
</clipPath>
<clipPath id="clip1_459_845">
<rect width="24" height="23.04" fill="white" transform="translate(0 0.480011)"/>
</clipPath>
</defs>
</svg>
