
<svg width="48" height="48" viewBox="0 0 48 48" fill="none" xmlns="http://www.w3.org/2000/svg">
<g id="fi_2448546" clip-path="url(#clip0_8429_46736)">
<g id="Group">
<g id="Group_2">
<path id="Vector" d="M8.34988 45.8163C8.04682 45.8163 7.7432 45.7446 7.47195 45.6088C6.65218 45.1985 5.05134 44.3188 3.54131 43.0364C1.57689 41.368 0.41256 39.5774 0.0805129 37.7139C-0.177369 36.2664 0.190819 34.7887 1.09058 33.6597C1.9239 32.6142 3.1047 32.0031 4.41557 31.9392C4.49265 31.9355 4.57077 31.9336 4.64767 31.9336C5.87581 31.9336 7.03524 32.4069 7.91232 33.2664C8.07072 33.4217 8.2168 33.5864 8.34988 33.7593C8.48296 33.5864 8.62903 33.4216 8.78743 33.2664C9.66451 32.407 10.8239 31.9337 12.0521 31.9337C12.129 31.9337 12.2071 31.9356 12.2842 31.9393C13.5951 32.0032 14.7759 32.6143 15.6093 33.6599C16.509 34.7888 16.8771 36.2666 16.6192 37.7141C16.2873 39.5775 15.123 41.3682 13.1585 43.0365C11.6485 44.3189 10.0478 45.1986 9.2279 45.6089C8.95656 45.7446 8.65294 45.8163 8.34988 45.8163Z" fill="url(#paint0_linear_8429_46736)"/>
<path id="Vector_2" d="M15.6092 33.6596C15.2968 33.2677 14.9356 32.9368 14.5371 32.6729C15.2647 33.7534 15.5468 35.0927 15.3126 36.4072C14.9807 38.2705 13.8164 40.0612 11.8519 41.7295C10.3419 43.0119 8.74115 43.8917 7.92129 44.3019C7.65005 44.4377 7.34642 44.5095 7.04336 44.5095C6.7403 44.5095 6.43668 44.4377 6.16543 44.3019C5.34567 43.8917 3.74482 43.012 2.2348 41.7295C2.17014 41.6745 2.10642 41.6195 2.04346 41.5642C2.47593 42.0642 2.97522 42.5552 3.54143 43.036C5.05155 44.3185 6.6523 45.1982 7.47207 45.6085C7.74332 45.7442 8.04694 45.816 8.35 45.816C8.65306 45.816 8.95668 45.7443 9.22793 45.6085C10.0478 45.1982 11.6485 44.3185 13.1586 43.036C15.123 41.3677 16.2873 39.577 16.6193 37.7137C16.8772 36.2663 16.5091 34.7886 15.6092 33.6596Z" fill="url(#paint1_linear_8429_46736)"/>
<path id="Vector_3" d="M12.2842 31.9392C12.2071 31.9355 12.129 31.9336 12.0521 31.9336C10.8238 31.9336 9.66439 32.4069 8.78741 33.2663C8.62901 33.4215 8.48294 33.5863 8.34985 33.7592V45.8163C8.65291 45.8163 8.95654 45.7446 9.22778 45.6088C10.0476 45.1985 11.6484 44.3188 13.1584 43.0364C15.1228 41.368 16.2872 39.5774 16.6191 37.714C16.877 36.2665 16.5089 34.7888 15.6091 33.6598C14.7758 32.6142 13.595 32.0031 12.2842 31.9392Z" fill="url(#paint2_linear_8429_46736)"/>
</g>
<g id="Group_3">
<path id="Vector_4" d="M23.5649 41.3638C22.7096 41.3638 21.8528 41.1612 21.0872 40.7782C18.7737 39.6203 14.2559 37.1376 9.99426 33.5183C4.45016 28.81 1.16414 23.7563 0.227199 18.4974C-0.500519 14.4122 0.538446 10.2419 3.07783 7.05561C5.42965 4.10483 8.76216 2.38041 12.4616 2.20008C12.6792 2.18945 12.8996 2.18408 13.1166 2.18408C16.5827 2.18408 19.8547 3.51989 22.33 5.9454C22.777 6.38352 23.1893 6.84846 23.5648 7.33636C23.9404 6.84846 24.3527 6.38342 24.7997 5.94531C27.2749 3.51989 30.547 2.18418 34.0132 2.18418C34.2301 2.18418 34.4506 2.18954 34.6681 2.20018C38.3676 2.38051 41.7002 4.10493 44.052 7.05589C46.5914 10.2421 47.6303 14.4124 46.9024 18.4975C45.9656 23.7562 42.6795 28.81 37.1355 33.5183C32.874 37.1375 28.3562 39.6202 26.0425 40.7782C25.2771 41.1613 24.4202 41.3638 23.5649 41.3638Z" fill="url(#paint3_linear_8429_46736)"/>
<path id="Vector_5" d="M44.0521 7.05566C43.1706 5.94949 42.1512 5.01575 41.0264 4.271C43.0799 7.32041 43.8761 11.1002 43.2151 14.8098C42.2784 20.0685 38.9923 25.1223 33.4483 29.8306C29.1867 33.4498 24.669 35.9326 22.3553 37.0905C21.5897 37.4736 20.733 37.6761 19.8775 37.6761C19.0222 37.6761 18.1654 37.4735 17.3999 37.0905C15.0864 35.9326 10.5685 33.4499 6.30689 29.8306C6.1243 29.6756 5.94454 29.5201 5.76685 29.3643C6.98736 30.7753 8.39649 32.1611 9.99433 33.5181C14.2561 37.1373 18.7739 39.6201 21.0873 40.7779C21.8529 41.161 22.7096 41.3635 23.565 41.3635C24.4203 41.3635 25.2772 41.1611 26.0426 40.7779C28.3564 39.6201 32.874 37.1373 37.1356 33.5181C42.6796 28.8097 45.9656 23.756 46.9025 18.4973C47.6304 14.4122 46.5915 10.2418 44.0521 7.05566Z" fill="url(#paint4_linear_8429_46736)"/>
<path id="Vector_6" d="M34.668 2.20008C34.4505 2.18945 34.2301 2.18408 34.0131 2.18408C30.5469 2.18408 27.2747 3.5198 24.7995 5.94521C24.3525 6.38333 23.9403 6.84827 23.5647 7.33618V41.3637C24.42 41.3637 25.2768 41.1612 26.0423 40.7781C28.3561 39.6202 32.8738 37.1374 37.1353 33.5182C42.6793 28.8099 45.9655 23.7561 46.9022 18.4974C47.6301 14.4123 46.5911 10.242 44.0519 7.05571C41.7001 4.10474 38.3675 2.38041 34.668 2.20008Z" fill="url(#paint5_linear_8429_46736)"/>
</g>
<g id="Group_4">
<path id="Vector_7" d="M35.3472 45.816C34.8879 45.816 34.4279 45.7073 34.0169 45.5016C32.7747 44.8799 30.3489 43.5468 28.0607 41.6035C25.084 39.0755 23.3195 36.362 22.8166 33.5384C22.4258 31.3449 22.9837 29.1057 24.3472 27.3949C25.61 25.8105 27.3993 24.8847 29.3857 24.7879C29.5025 24.7821 29.6208 24.7793 29.7373 24.7793C31.5983 24.7793 33.3552 25.4966 34.6843 26.7989C34.9243 27.0342 35.1456 27.2838 35.3472 27.5457C35.5489 27.2837 35.7702 27.0341 36.0103 26.7988C37.3393 25.4965 39.0962 24.7793 40.9573 24.7793C41.0738 24.7793 41.1921 24.7822 41.3089 24.7879C43.2953 24.8847 45.0846 25.8105 46.3474 27.395C47.7109 29.1058 48.2687 31.3449 47.8779 33.5384C47.3749 36.3619 45.6105 39.0755 42.6337 41.6035C40.3455 43.5467 37.9198 44.8798 36.6776 45.5016C36.2666 45.7073 35.8065 45.816 35.3472 45.816Z" fill="url(#paint6_linear_8429_46736)"/>
<path id="Vector_8" d="M46.3473 27.3951C45.874 26.8012 45.3267 26.2998 44.7227 25.8999C45.8253 27.5373 46.2528 29.5667 45.8979 31.5585C45.3949 34.3821 43.6305 37.0957 40.6537 39.6237C38.3655 41.5669 35.9399 42.9 34.6976 43.5217C34.2866 43.7275 33.8265 43.8362 33.3672 43.8362C32.9079 43.8362 32.4479 43.7275 32.0369 43.5217C30.7947 42.9001 28.3689 41.567 26.0807 39.6237C25.9827 39.5404 25.8862 39.4569 25.7908 39.3733C26.4461 40.131 27.2027 40.875 28.0606 41.6036C30.3489 43.547 32.7746 44.8799 34.0167 45.5017C34.4278 45.7074 34.8878 45.8161 35.3471 45.8161C35.8064 45.8161 36.2664 45.7074 36.6775 45.5017C37.9198 44.8799 40.3455 43.5469 42.6336 41.6036C45.6103 39.0756 47.3748 36.3621 47.8777 33.5385C48.2686 31.3451 47.7108 29.1058 46.3473 27.3951Z" fill="url(#paint7_linear_8429_46736)"/>
<path id="Vector_9" d="M41.3089 24.7879C41.1921 24.7821 41.0737 24.7793 40.9572 24.7793C39.0962 24.7793 37.3393 25.4965 36.0102 26.7988C35.7702 27.034 35.5489 27.2837 35.3472 27.5456V45.816C35.8065 45.816 36.2665 45.7073 36.6775 45.5016C37.9199 44.8798 40.3456 43.5467 42.6337 41.6035C45.6104 39.0755 47.3748 36.362 47.8778 33.5384C48.2686 31.3449 47.7108 29.1058 46.3474 27.395C45.0846 25.8105 43.2952 24.8847 41.3089 24.7879Z" fill="url(#paint8_linear_8429_46736)"/>
</g>
</g>
</g>
<defs>
<linearGradient id="paint0_linear_8429_46736" x1="6.97237" y1="35.3042" x2="12.8098" y2="42.5927" gradientUnits="userSpaceOnUse">
<stop stop-color="#65E0DB"/>
<stop offset="0.199" stop-color="#60DCD6"/>
<stop offset="0.4277" stop-color="#53D0C8"/>
<stop offset="0.671" stop-color="#3CBCB1"/>
<stop offset="0.9229" stop-color="#1CA191"/>
<stop offset="1" stop-color="#119786"/>
</linearGradient>
<linearGradient id="paint1_linear_8429_46736" x1="10.5271" y1="41.3453" x2="13.7941" y2="48.9431" gradientUnits="userSpaceOnUse">
<stop stop-color="#65E0DB" stop-opacity="0"/>
<stop offset="0.1625" stop-color="#49C8BF" stop-opacity="0.163"/>
<stop offset="0.3526" stop-color="#31B3A6" stop-opacity="0.353"/>
<stop offset="0.5508" stop-color="#1FA394" stop-opacity="0.551"/>
<stop offset="0.7603" stop-color="#149A89" stop-opacity="0.76"/>
<stop offset="1" stop-color="#119786"/>
</linearGradient>
<linearGradient id="paint2_linear_8429_46736" x1="9.73065" y1="37.4267" x2="2.04727" y2="29.5926" gradientUnits="userSpaceOnUse">
<stop stop-color="#65E0DB" stop-opacity="0"/>
<stop offset="0.1625" stop-color="#49C8BF" stop-opacity="0.163"/>
<stop offset="0.3526" stop-color="#31B3A6" stop-opacity="0.353"/>
<stop offset="0.5508" stop-color="#1FA394" stop-opacity="0.551"/>
<stop offset="0.7603" stop-color="#149A89" stop-opacity="0.76"/>
<stop offset="1" stop-color="#119786"/>
</linearGradient>
<linearGradient id="paint3_linear_8429_46736" x1="19.6773" y1="11.6965" x2="36.1516" y2="32.2661" gradientUnits="userSpaceOnUse">
<stop stop-color="#FF819C"/>
<stop offset="0.2594" stop-color="#FF7E9A"/>
<stop offset="0.4757" stop-color="#FE7396"/>
<stop offset="0.6765" stop-color="#FC628E"/>
<stop offset="0.8668" stop-color="#FA4A83"/>
<stop offset="1" stop-color="#F83479"/>
</linearGradient>
<linearGradient id="paint4_linear_8429_46736" x1="28.3077" y1="26.8862" x2="37.2696" y2="53.1031" gradientUnits="userSpaceOnUse">
<stop stop-color="#F82814" stop-opacity="0"/>
<stop offset="1" stop-color="#C0272D"/>
</linearGradient>
<linearGradient id="paint5_linear_8429_46736" x1="27.4616" y1="17.6867" x2="5.77759" y2="-4.42251" gradientUnits="userSpaceOnUse">
<stop stop-color="#F82814" stop-opacity="0"/>
<stop offset="1" stop-color="#C0272D"/>
</linearGradient>
<linearGradient id="paint6_linear_8429_46736" x1="33.2599" y1="29.8868" x2="42.1054" y2="40.9312" gradientUnits="userSpaceOnUse">
<stop stop-color="#FFD945"/>
<stop offset="0.2567" stop-color="#FFD442"/>
<stop offset="0.5511" stop-color="#FFC63A"/>
<stop offset="0.8628" stop-color="#FFB02C"/>
<stop offset="1" stop-color="#FFA325"/>
</linearGradient>
<linearGradient id="paint7_linear_8429_46736" x1="38.6462" y1="39.0415" x2="43.5969" y2="50.5544" gradientUnits="userSpaceOnUse">
<stop stop-color="#F35227" stop-opacity="0"/>
<stop offset="1" stop-color="#F35227"/>
</linearGradient>
<linearGradient id="paint8_linear_8429_46736" x1="37.4395" y1="33.1032" x2="25.7968" y2="21.232" gradientUnits="userSpaceOnUse">
<stop stop-color="#F35227" stop-opacity="0"/>
<stop offset="1" stop-color="#F35227"/>
</linearGradient>
<clipPath id="clip0_8429_46736">
<rect width="48" height="48" fill="white"/>
</clipPath>
</defs>
</svg>
