
<svg width="48" height="48" viewBox="0 0 48 48" fill="none" xmlns="http://www.w3.org/2000/svg">
<g id="fi_3673582" clip-path="url(#clip0_8192_12459)">
<g id="Group">
<path id="Vector" d="M38.7188 0.65527C38.7135 0.649927 38.7086 0.644302 38.7033 0.638958C38.1362 0.0718642 37.3347 -0.117605 36.6107 0.0699892C36.4017 0.124177 36.1931 0.180145 35.9808 0.219989L28.1721 1.68455C27.0087 1.9028 26.1874 2.9934 26.3643 4.16386C26.5499 5.39265 27.7145 6.21249 28.9256 5.98543L30.5801 5.67511L26.6688 9.58636C24.5556 8.09649 22.0402 7.2938 19.4014 7.2938C16.0232 7.2938 12.8472 8.6094 10.4585 10.9981C8.06974 13.3869 6.75415 16.5629 6.75415 19.9411C6.75415 23.3192 8.06974 26.4952 10.4585 28.884C12.8472 31.2727 16.0232 32.5883 19.4014 32.5883C22.7796 32.5883 25.9556 31.2727 28.3443 28.884C30.7331 26.4952 32.0486 23.3192 32.0486 19.9411C32.0486 17.3023 31.2459 14.7869 29.756 12.6737L34.0586 8.37118L33.6681 10.97C33.4891 12.1611 34.281 13.3082 35.4701 13.5002C35.5886 13.5194 35.7059 13.5286 35.8219 13.5286C36.8842 13.5286 37.8154 12.7519 37.978 11.6697L39.3498 2.53861C39.4541 1.84543 39.2187 1.14521 38.7188 0.65527ZM25.257 25.7966C23.6929 27.3607 21.6133 28.2221 19.4013 28.2221C17.1893 28.2221 15.1097 27.3607 13.5456 25.7965C11.9815 24.2324 11.1201 22.1528 11.1201 19.9409C11.1201 17.7289 11.9816 15.6494 13.5456 14.0852C15.1097 12.5211 17.1893 11.6597 19.4013 11.6597C21.6133 11.6597 23.6929 12.5212 25.257 14.0852C28.4858 17.3141 28.4858 22.5677 25.257 25.7966Z" fill="#8AC9FE"/>
<path id="Vector_2" d="M29.7559 12.6735L34.0582 8.37113C34.0352 8.2456 33.9657 7.41928 33.9083 6.70819C33.8744 6.2881 33.364 6.1006 33.066 6.39863L28.3396 11.1805C27.7125 11.815 27.6181 12.7971 28.099 13.5484C29.1793 15.2357 29.9677 16.9543 29.9658 19.0708C29.9627 22.4117 28.6276 25.6325 26.2666 27.9962C23.8771 30.3883 20.6992 31.7061 17.3187 31.7061C15.9817 31.7061 14.6785 31.4999 13.4417 31.1031C15.203 32.046 17.1748 32.5593 19.2249 32.5871C22.6339 32.6334 25.9331 31.2945 28.3439 28.8837C30.7326 26.4949 32.0484 23.3192 32.0484 19.9412C32.0484 17.3018 31.2451 14.7868 29.7559 12.6735ZM38.7188 0.655316C38.713 0.650534 38.7082 0.644722 38.7034 0.638909C38.1987 0.135097 37.51 -0.0709656 36.854 0.0214719C37.2027 0.484784 37.3549 1.07232 37.2673 1.6561L35.8956 10.7865C35.7492 11.7623 34.9776 12.4895 34.0491 12.6233C34.3815 13.0828 34.8901 13.4132 35.4949 13.5038C35.6047 13.5202 35.7136 13.5288 35.8215 13.5288C36.8839 13.5288 37.8153 12.7514 37.9781 11.6697L39.3497 2.53828C39.4537 1.84585 39.2187 1.14553 38.7188 0.655316Z" fill="#60B7FF"/>
<path id="Vector_3" d="M37.5469 19.1155C35.1582 16.7267 31.9822 15.4111 28.6039 15.4111C25.2257 15.4111 22.0497 16.7267 19.661 19.1155C17.2722 21.5042 15.9566 24.6802 15.9566 28.0584C15.9566 30.6972 16.7593 33.2126 18.2492 35.3258L16.025 37.55L14.4885 36.0135C13.6359 35.161 12.2537 35.1611 11.4012 36.0135C10.5487 36.866 10.5487 38.2483 11.4012 39.1008L12.9377 40.6373L9.30178 44.2732C8.44921 45.1257 8.44921 46.5079 9.30178 47.3605C9.72806 47.7868 10.2866 47.9998 10.8454 47.9998C11.404 47.9998 11.9628 47.7867 12.389 47.3605L16.0249 43.7246L17.5613 45.261C17.9876 45.6873 18.5463 45.9004 19.1049 45.9004C19.6636 45.9004 20.2223 45.6872 20.6485 45.261C21.5011 44.4086 21.5011 43.0263 20.6485 42.1738L19.1121 40.6373L21.3381 38.4113C23.5092 39.9366 26.0563 40.6998 28.6036 40.6998C31.8423 40.6998 35.081 39.467 37.5466 37.0015C42.4779 32.0702 42.4779 24.0466 37.5469 19.1155ZM34.4596 33.9141C31.2307 37.1429 25.9771 37.1428 22.7482 33.9141C21.1841 32.35 20.3227 30.2704 20.3227 28.0584C20.3227 25.8464 21.1842 23.7668 22.7482 22.2028C24.3124 20.6386 26.3919 19.7773 28.6039 19.7773C30.8159 19.7773 32.8955 20.6386 34.4596 22.2028C37.6884 25.4316 37.6884 30.6853 34.4596 33.9141Z" fill="#FD8087"/>
<path id="Vector_4" d="M37.5481 19.1156C37.3111 18.8787 37.0656 18.6514 36.8132 18.4365C41.0592 23.4 40.8347 30.8978 36.139 35.5926C33.6741 38.0584 30.7629 38.977 27.5246 38.977C25.172 38.977 23.0859 38.0261 21.0707 36.6791C20.7779 36.4833 20.388 36.5201 20.1402 36.7704L18.2182 38.7106C17.9343 38.9972 17.9353 39.4593 18.2206 39.7445L19.1141 40.6379L21.3401 38.4119C23.5112 39.9367 26.0579 40.6996 28.6047 40.6996C31.8441 40.6996 35.0825 39.4676 37.5483 37.0017C42.4789 32.0701 42.4789 24.0474 37.5481 19.1156ZM20.6502 42.1743L19.2411 40.7651C20.0936 41.6176 20.0936 42.9999 19.2411 43.8523C18.8154 44.279 18.2566 44.4919 17.698 44.4919C17.1393 44.4919 16.5806 44.279 16.1539 43.8523L17.5631 45.2615C17.9888 45.6872 18.5475 45.9011 19.1062 45.9011C19.6648 45.9011 20.2235 45.6872 20.6502 45.2615C21.5026 44.409 21.5026 43.0268 20.6502 42.1743ZM15.1357 42.8345C14.8496 42.5482 14.3854 42.5481 14.0992 42.8343L10.9813 45.9521C10.5556 46.3779 9.99696 46.5917 9.43821 46.5917C9.21284 46.5917 8.98643 46.5561 8.76978 46.4858C8.87093 46.8056 9.05009 47.1071 9.3034 47.3604C9.72912 47.7871 10.2878 47.9999 10.8465 47.9999C11.4053 47.9999 11.9638 47.787 12.3906 47.3604L16.0258 43.7251L15.1357 42.8345Z" fill="#FE646F"/>
</g>
</g>
<defs>
<clipPath id="clip0_8192_12459">
<rect width="48" height="48" fill="white"/>
</clipPath>
</defs>
</svg>
