
<svg width="100" height="100" viewBox="0 0 100 100" fill="none" xmlns="http://www.w3.org/2000/svg">
<g id="Woman">
<rect width="100" height="100" rx="50" fill="url(#paint0_linear_2767_3912)"/>
<path id="Vector" d="M50 69C34.1276 69 20.2099 74.6015 12 83.1188C21.3045 93.4777 34.8313 100 50 100C65.1687 100 78.6955 93.4777 88 83.1188C79.7901 74.6015 65.8724 69 50 69Z" fill="#FFAFBD"/>
<path id="Vector_2" d="M51.3877 81H48.6123C44.4097 81 41 77.6521 41 73.5255V56.4745C41 52.3479 44.4097 49 48.6123 49H51.3877C55.5903 49 59 52.3479 59 56.4745V73.5255C59 77.5742 55.5903 81 51.3877 81Z" fill="#FFAFBD"/>
<path id="Vector_3" d="M74.2408 44.5946C73.7649 38.2258 74.0028 31.6182 71.9405 25.5678C69.6402 18.7213 64.3258 12.9098 57.5836 10.3623C50.8414 7.81475 42.83 8.84969 37.1983 13.3875C35.2153 14.9797 33.4703 17.2088 33.6289 19.7563C30.2181 18.5621 26.4108 21.03 24.8244 24.294C23.238 27.5581 23.3173 31.2997 23.5552 34.9618C24.1898 45.5499 25.8555 56.3769 23 66.6466C31.7252 66.8855 40.5297 67.2039 49.255 67.4427C52.0312 67.5224 54.8867 67.6019 57.6629 67.5223C64.8017 67.2039 72.2578 65.6117 79 68C76.3824 60.437 74.796 52.5556 74.2408 44.5946Z" fill="#FFAFBD"/>
</g>
<defs>
<linearGradient id="paint0_linear_2767_3912" x1="114.973" y1="-9.37495" x2="-5.50608" y2="-5.54477" gradientUnits="userSpaceOnUse">
<stop stop-color="#FC768A"/>
<stop offset="1" stop-color="#E65073"/>
</linearGradient>
</defs>
</svg>
