
<svg width="24" height="24" viewBox="0 0 24 24" fill="none" xmlns="http://www.w3.org/2000/svg">
<g id="fi_10350376" clip-path="url(#clip0_5455_38718)">
<g id="Layer_x0020_1">
<path id="Vector" fill-rule="evenodd" clip-rule="evenodd" d="M9.71971 14.6107C8.27857 14.6107 7.10742 13.4395 7.10742 12.0018C7.10742 10.5606 8.27857 9.38947 9.71971 9.38947C11.1575 9.38947 12.3286 10.5606 12.3286 12.0018C12.3286 13.4395 11.1575 14.6107 9.71971 14.6107Z" fill="#289F87"/>
<path id="Vector_2" fill-rule="evenodd" clip-rule="evenodd" d="M9.71899 22.7951C8.28459 22.7951 6.95144 21.6442 5.9693 19.5551C4.00502 15.37 4.00502 8.63001 5.9693 4.44495C6.95144 2.35579 8.28459 1.2049 9.71899 1.2049C10.2556 1.2049 10.7821 1.3669 11.285 1.68753C11.5955 1.88666 11.2951 2.35916 10.9813 2.16003C10.5695 1.90016 10.1442 1.76853 9.71899 1.76853C8.51409 1.76853 7.3632 2.80467 6.47894 4.68457C4.58553 8.71776 4.58553 15.2822 6.47894 19.3154C8.30822 23.2069 11.1298 23.2069 12.9557 19.3154C13.8703 17.3646 14.3766 14.7692 14.3766 12.0017C14.3766 8.64689 13.6138 5.49459 12.3347 3.56743C12.2503 3.43918 12.284 3.26368 12.4157 3.1793C12.5439 3.09155 12.7194 3.12868 12.8038 3.25693C14.1403 5.27183 14.9402 8.54226 14.9402 12.0017C14.9402 14.8502 14.4171 17.5334 13.4653 19.5551C12.4832 21.6442 11.1534 22.7951 9.71899 22.7951Z" fill="#289F87"/>
<path id="Vector_3" fill-rule="evenodd" clip-rule="evenodd" d="M4.20243 19.0589C2.34277 19.0589 0.996128 18.4817 0.371744 17.3983C-0.347142 16.1563 -0.0163874 14.4283 1.30326 12.5315C3.94592 8.73795 9.78139 5.36627 14.3883 4.97814C16.6901 4.78239 18.3506 5.35952 19.0695 6.60154C19.4847 7.3238 19.5522 8.20132 19.2653 9.21046C19.164 9.56484 18.6207 9.41296 18.7219 9.05521C18.9683 8.19794 18.921 7.46893 18.5835 6.88505C17.9794 5.84216 16.5079 5.3629 14.4356 5.5384C9.99402 5.91303 4.31043 9.19696 1.76564 12.8521C-0.688023 16.3791 0.722749 18.826 5.00232 18.4615C9.49114 18.0835 15.2726 14.7287 17.7701 11.006C17.8579 10.8777 18.03 10.844 18.1616 10.9284C18.2899 11.0161 18.3236 11.1916 18.2359 11.3199C15.6439 15.1809 9.70714 18.6269 5.04957 19.0217C4.75931 19.0487 4.47581 19.0589 4.20243 19.0589Z" fill="#FE9738"/>
<path id="Vector_4" fill-rule="evenodd" clip-rule="evenodd" d="M14.9473 19.0555C14.944 19.0555 14.944 19.0555 14.9406 19.0555C10.2391 18.9104 4.02567 15.3801 1.302 11.4684C-0.118894 9.42312 -0.493525 7.39134 0.755245 6.08857C1.01175 5.82194 1.41675 6.21007 1.16025 6.4767C0.11736 7.56685 0.502116 9.33537 1.76439 11.1478C4.39355 14.9278 10.4416 18.3535 14.9575 18.4919C15.322 18.5054 15.3118 19.0555 14.9473 19.0555ZM18.0018 13.1188C17.9106 13.1188 17.8229 13.0749 17.7689 12.9939C16.5471 11.1782 14.5153 9.39275 12.0482 7.9651C8.70687 6.03795 5.18331 5.14356 2.85453 5.63294C2.49002 5.70719 2.37527 5.15706 2.7364 5.08281C5.20019 4.56642 8.87562 5.48444 12.3283 7.47909C14.8697 8.94724 16.969 10.7934 18.2346 12.68C18.3629 12.8691 18.2211 13.1188 18.0018 13.1188Z" fill="#FEE45A"/>
<path id="Vector_5" fill-rule="evenodd" clip-rule="evenodd" d="M11.9304 3.91494C11.2014 3.91494 10.6074 3.32431 10.6074 2.5953C10.6074 1.86629 11.2014 1.27228 11.9304 1.27228C12.6561 1.27228 13.2501 1.86629 13.2501 2.5953C13.2501 3.32431 12.6561 3.91494 11.9304 3.91494Z" fill="#3B869E"/>
<path id="Vector_6" fill-rule="evenodd" clip-rule="evenodd" d="M1.8074 7.00326C1.07838 7.00326 0.484375 6.40925 0.484375 5.68362C0.484375 4.9546 1.07838 4.3606 1.8074 4.3606C2.53641 4.3606 3.12704 4.9546 3.12704 5.68362C3.12704 6.40925 2.53641 7.00326 1.8074 7.00326Z" fill="#EA9D2D"/>
<path id="Vector_7" fill-rule="evenodd" clip-rule="evenodd" d="M9.71986 10.284C8.77147 10.284 8.00195 11.0535 8.00195 12.0019C8.00195 12.9469 8.77147 13.7164 9.71986 13.7164C10.6649 13.7164 11.4344 12.9469 11.4344 12.0019C11.4344 11.0535 10.6649 10.284 9.71986 10.284Z" fill="#248F7A"/>
<path id="Vector_8" fill-rule="evenodd" clip-rule="evenodd" d="M19.3089 22.785C21.8806 22.785 23.9732 20.6925 23.9732 18.1207C23.9732 16.126 22.7143 14.3676 20.8513 13.7128V10.3209C20.8513 10.196 20.75 10.0948 20.6251 10.0948H17.996C17.8711 10.0948 17.7698 10.196 17.7698 10.3209V13.7128C15.9034 14.3676 14.6445 16.126 14.6445 18.1207C14.6445 20.6925 16.7371 22.785 19.3089 22.785Z" fill="#D3EFFB"/>
<path id="Vector_9" fill-rule="evenodd" clip-rule="evenodd" d="M19.3088 21.8197C21.3068 21.8197 22.9302 20.1929 22.9302 18.1982C22.9302 17.6785 22.8222 17.1756 22.6096 16.7065C22.5758 16.6356 22.5083 16.585 22.4273 16.5748C20.2741 16.3318 18.1714 17.341 16.0957 16.9933C15.9844 16.9765 15.8764 17.044 15.8426 17.152C15.1473 19.4605 16.8754 21.8197 19.3088 21.8197Z" fill="#F4C33F"/>
<path id="Vector_10" fill-rule="evenodd" clip-rule="evenodd" d="M17.7798 10.5471H20.8376C21.3034 10.5471 21.6814 10.1691 21.6814 9.7033C21.6814 9.24092 21.3034 8.86292 20.8376 8.86292H17.7798C17.3141 8.86292 16.9395 9.24092 16.9395 9.7033C16.9395 10.1691 17.3141 10.5471 17.7798 10.5471Z" fill="#F04C82"/>
<path id="Vector_11" fill-rule="evenodd" clip-rule="evenodd" d="M18.2018 10.5471V13.7905C16.3354 14.4452 15.0765 16.2036 15.0765 18.1949C15.0765 20.4157 16.6392 22.2821 18.7216 22.7479C16.4266 22.4576 14.6445 20.4933 14.6445 18.1207C14.6445 16.126 15.9034 14.3676 17.7698 13.7129V10.5471H17.78H18.2018Z" fill="#B1E4F9"/>
<path id="Vector_12" fill-rule="evenodd" clip-rule="evenodd" d="M16.1227 17.0035C15.4275 19.3121 17.1555 21.6679 19.5889 21.6679C20.1458 21.6679 20.6723 21.543 21.1448 21.3169C20.6048 21.6341 19.977 21.8197 19.3088 21.8197C16.8754 21.8197 15.1473 19.4606 15.8426 17.152C15.8764 17.044 15.9844 16.9765 16.0957 16.9934C16.1059 16.9968 16.116 16.9968 16.1261 17.0002C16.1227 17.0002 16.1227 17.0002 16.1227 17.0035Z" fill="#F5B039"/>
<g id="Group">
<path id="Vector_13" fill-rule="evenodd" clip-rule="evenodd" d="M18.8219 20.8175C18.3427 20.8175 17.9512 20.426 17.9512 19.9467C17.9512 19.4675 18.3427 19.0793 18.8219 19.0793C19.3012 19.0793 19.6893 19.4675 19.6893 19.9467C19.6893 20.426 19.3012 20.8175 18.8219 20.8175Z" fill="#EA9D2D"/>
<path id="Vector_14" fill-rule="evenodd" clip-rule="evenodd" d="M21.0762 19.7542C20.5497 19.7542 20.1211 19.3255 20.1211 18.799C20.1211 18.2725 20.5497 17.8439 21.0762 17.8439C21.6027 17.8439 22.0314 18.2725 22.0314 18.799C22.0314 19.3255 21.6027 19.7542 21.0762 19.7542Z" fill="#EA9D2D"/>
<path id="Vector_15" fill-rule="evenodd" clip-rule="evenodd" d="M17.4176 19.2682C16.9384 19.2682 16.5469 18.8801 16.5469 18.4008C16.5469 17.9215 16.9384 17.53 17.4176 17.53C17.8969 17.53 18.285 17.9215 18.285 18.4008C18.285 18.8801 17.8969 19.2682 17.4176 19.2682Z" fill="#EA9D2D"/>
</g>
</g>
</g>
<defs>
<clipPath id="clip0_5455_38718">
<rect width="24" height="24" fill="white"/>
</clipPath>
</defs>
</svg>
