
<svg width="24" height="24" viewBox="0 0 24 24" fill="none" xmlns="http://www.w3.org/2000/svg">
<g id="fi_7565542">
<g id="Group">
<g id="Group_2">
<g id="Group_3">
<path id="Vector" d="M13.3587 3.55533L15.8574 8.61839L21.4448 9.43026C22.5982 9.59789 23.0588 11.0153 22.2241 11.8289L18.1811 15.7699L19.1355 21.3347C19.3326 22.4835 18.1268 23.3595 17.0952 22.8172L12.0976 20.1899L7.10011 22.8172C6.06848 23.3595 4.86267 22.4835 5.05973 21.3347L6.0142 15.7699L1.97114 11.8289C1.13648 11.0153 1.59708 9.5978 2.75048 9.43026L8.33789 8.61839L10.8366 3.55533C11.3524 2.5102 12.8429 2.5102 13.3587 3.55533Z" fill="#FFA91A"/>
</g>
<g id="Group_4">
<path id="Vector_2" d="M8.8417 9.05476C8.81386 9.05476 8.78555 9.04857 8.75883 9.03535C8.66602 8.98951 8.62786 8.8771 8.6737 8.78419L10.4578 5.16919C10.5035 5.07638 10.616 5.03804 10.7089 5.08407C10.8017 5.12991 10.8399 5.24232 10.794 5.33522L9.00999 8.95022C8.97736 9.01632 8.91089 9.05476 8.8417 9.05476ZM10.9577 4.76729C10.9299 4.76729 10.9016 4.7611 10.875 4.74788C10.782 4.70213 10.744 4.58963 10.7897 4.49682L10.8167 4.44207C10.8625 4.34916 10.9749 4.31091 11.0678 4.35685C11.1607 4.4026 11.1988 4.5151 11.153 4.60791L11.126 4.66266C11.0934 4.72885 11.0268 4.76729 10.9577 4.76729Z" fill="#FFC91D"/>
</g>
<g id="Group_5">
<g id="Group_6">
<path id="Vector_3" d="M21.6494 9.4751C21.7931 9.94647 21.6963 10.4917 21.2862 10.8914L17.5961 14.4884C17.3752 14.7037 17.2744 15.014 17.3265 15.3182L18.1976 20.3972C18.3947 21.546 17.1889 22.422 16.1572 21.8796L11.596 19.4816C11.3229 19.338 10.9966 19.338 10.7235 19.4816L6.16228 21.8796C5.8065 22.0667 5.43009 22.0849 5.09766 21.9816C5.33841 22.7768 6.27441 23.2511 7.09978 22.8171L12.0973 20.1898L17.0948 22.8171C18.1265 23.3595 19.3323 22.4835 19.1352 21.3347L18.1807 15.7698L22.2238 11.8288C23.007 11.0654 22.6495 9.77022 21.6494 9.4751Z" fill="#F79219"/>
</g>
</g>
<g id="Group_7">
<g id="Group_8">
<path id="Vector_4" d="M21.9717 9.61755C22.2903 10.1426 22.264 10.8637 21.7546 11.3602L18.0645 14.9572C17.8435 15.1725 17.7427 15.4828 17.7949 15.787L18.666 20.866C18.863 22.0148 17.6572 22.8908 16.6256 22.3484L12.0644 19.9504C11.7913 19.8068 11.465 19.8068 11.1919 19.9504L6.63064 22.3484C6.15214 22.6 5.63633 22.5461 5.24023 22.3016C5.60305 22.8941 6.39205 23.1891 7.09939 22.8172L12.0969 20.1898L17.0945 22.8172C18.1261 23.3595 19.3319 22.4835 19.1348 21.3347L18.1804 15.7699L22.2234 11.8288C22.9151 11.1546 22.7165 10.0661 21.9717 9.61755Z" fill="#EF7816"/>
</g>
</g>
</g>
<g id="Group_9">
<path id="Vector_5" d="M12.0982 17.5646C10.3446 17.5646 8.91797 16.3622 8.91797 14.8843C8.91797 14.6772 9.08587 14.5093 9.29297 14.5093C9.50006 14.5093 9.66797 14.6772 9.66797 14.8843C9.66797 15.9487 10.7581 16.8146 12.0982 16.8146C13.4381 16.8146 14.5283 15.9487 14.5283 14.8843C14.5283 14.6772 14.6962 14.5093 14.9033 14.5093C15.1104 14.5093 15.2783 14.6772 15.2783 14.8843C15.2783 16.3622 13.8517 17.5646 12.0982 17.5646Z" fill="#995222"/>
</g>
<g id="Group_10">
<g id="Group_11">
<path id="Vector_6" d="M10.6509 11.963C10.4438 11.963 10.2759 11.7951 10.2759 11.588C10.2759 11.2297 9.94591 10.9382 9.54025 10.9382C9.13469 10.9382 8.80469 11.2297 8.80469 11.588C8.80469 11.7951 8.63678 11.963 8.42969 11.963C8.22259 11.963 8.05469 11.7951 8.05469 11.588C8.05469 10.8162 8.72106 10.1882 9.54025 10.1882C10.3594 10.1882 11.0259 10.8162 11.0259 11.588C11.0259 11.7951 10.858 11.963 10.6509 11.963Z" fill="#995222"/>
</g>
<g id="Group_12">
<path id="Vector_7" d="M15.7622 11.963C15.5551 11.963 15.3872 11.7951 15.3872 11.588C15.3872 11.2297 15.0572 10.9382 14.6517 10.9382C14.246 10.9382 13.916 11.2297 13.916 11.588C13.916 11.7951 13.7481 11.963 13.541 11.963C13.3339 11.963 13.166 11.7951 13.166 11.588C13.166 10.8162 13.8324 10.1882 14.6517 10.1882C15.4708 10.1882 16.1372 10.8162 16.1372 11.588C16.1372 11.7951 15.9693 11.963 15.7622 11.963Z" fill="#995222"/>
</g>
</g>
<g id="Group_13">
<g id="Group_14">
<path id="Vector_8" d="M8.01719 13.6105C8.49483 13.6105 8.88203 13.3623 8.88203 13.0562C8.88203 12.7501 8.49483 12.502 8.01719 12.502C7.53955 12.502 7.15234 12.7501 7.15234 13.0562C7.15234 13.3623 7.53955 13.6105 8.01719 13.6105Z" fill="#F79219"/>
</g>
<g id="Group_15">
<path id="Vector_9" d="M16.1773 13.6105C16.655 13.6105 17.0422 13.3623 17.0422 13.0562C17.0422 12.7501 16.655 12.502 16.1773 12.502C15.6997 12.502 15.3125 12.7501 15.3125 13.0562C15.3125 13.3623 15.6997 13.6105 16.1773 13.6105Z" fill="#F79219"/>
</g>
</g>
<g id="Group_16">
<g id="Group_17">
<g id="Group_18">
<path id="Vector_10" d="M19.1779 6.36802L19.2847 6.3968C19.3684 6.4193 19.3684 6.53808 19.2847 6.56058L19.1779 6.58936C18.503 6.77105 17.9759 7.29821 17.7942 7.97311L17.7654 8.07989C17.7429 8.16361 17.6241 8.16361 17.6016 8.07989L17.5729 7.97311C17.3912 7.29821 16.864 6.77105 16.1891 6.58936L16.0823 6.56058C15.9986 6.53808 15.9986 6.4193 16.0823 6.3968L16.1891 6.36802C16.864 6.18633 17.3912 5.65917 17.5729 4.98427L17.6016 4.87749C17.6241 4.79377 17.7429 4.79377 17.7654 4.87749L17.7942 4.98427C17.9759 5.65908 18.503 6.18624 19.1779 6.36802Z" fill="#FFA91A"/>
</g>
<g id="Group_19">
<path id="Vector_11" d="M18.3505 6.43141C18.3987 6.44444 18.3987 6.51288 18.3505 6.52582C18.0482 6.60719 17.8121 6.84326 17.7308 7.14551C17.7177 7.19379 17.6493 7.19379 17.6364 7.14551C17.555 6.84326 17.3189 6.60719 17.0167 6.52582C16.9684 6.51279 16.9684 6.44435 17.0167 6.43141C17.3189 6.35004 17.555 6.11397 17.6364 5.81172C17.6494 5.76344 17.7178 5.76344 17.7308 5.81172C17.8121 6.11397 18.0482 6.35004 18.3505 6.43141Z" fill="#FFC91D"/>
</g>
</g>
<g id="Group_20">
<g id="Group_21">
<path id="Vector_12" d="M7.2717 4.86802L7.37848 4.8968C7.4622 4.9193 7.4622 5.03808 7.37848 5.06058L7.2717 5.08936C6.59679 5.27105 6.06963 5.79821 5.88795 6.47311L5.85916 6.57989C5.83666 6.66361 5.71788 6.66361 5.69538 6.57989L5.6666 6.47311C5.48491 5.79821 4.95776 5.27105 4.28285 5.08936L4.17607 5.06058C4.09235 5.03808 4.09235 4.9193 4.17607 4.8968L4.28285 4.86802C4.95776 4.68633 5.48491 4.15917 5.6666 3.48427L5.69538 3.37749C5.71788 3.29377 5.83666 3.29377 5.85916 3.37749L5.88795 3.48427C6.06963 4.15908 6.59679 4.68624 7.2717 4.86802Z" fill="#FFA91A"/>
</g>
<g id="Group_22">
<path id="Vector_13" d="M6.44421 4.93141C6.49249 4.94444 6.49249 5.01288 6.44421 5.02582C6.14196 5.10719 5.9059 5.34325 5.82452 5.6455C5.81149 5.69379 5.74305 5.69379 5.73012 5.6455C5.64874 5.34325 5.41268 5.10719 5.11043 5.02582C5.06215 5.01279 5.06215 4.94435 5.11043 4.93141C5.41268 4.85004 5.64874 4.61397 5.73012 4.31172C5.74315 4.26344 5.81159 4.26344 5.82452 4.31172C5.9059 4.61397 6.14196 4.85004 6.44421 4.93141Z" fill="#FFC91D"/>
</g>
</g>
<g id="Group_23">
<g id="Group_24">
<path id="Vector_14" d="M4.50607 16.4461L4.61285 16.4749C4.69657 16.4974 4.69657 16.6162 4.61285 16.6387L4.50607 16.6675C3.83116 16.8492 3.30401 17.3763 3.12232 18.0512L3.09354 18.158C3.07104 18.2417 2.95226 18.2417 2.92976 18.158L2.90098 18.0512C2.71929 17.3763 2.19213 16.8492 1.51723 16.6675L1.41045 16.6387C1.32673 16.6162 1.32673 16.4974 1.41045 16.4749L1.51723 16.4461C2.19213 16.2645 2.71929 15.7373 2.90098 15.0624L2.92976 14.9556C2.95226 14.8719 3.07104 14.8719 3.09354 14.9556L3.12232 15.0624C3.30401 15.7372 3.83116 16.2644 4.50607 16.4461Z" fill="#FFA91A"/>
</g>
<g id="Group_25">
<path id="Vector_15" d="M3.67859 16.5095C3.72687 16.5226 3.72687 16.591 3.67859 16.6039C3.37634 16.6853 3.14027 16.9214 3.0589 17.2236C3.04587 17.2719 2.97743 17.2719 2.96449 17.2236C2.88312 16.9214 2.64705 16.6853 2.3448 16.6039C2.29652 16.5909 2.29652 16.5225 2.3448 16.5095C2.64705 16.4282 2.88312 16.1921 2.96449 15.8898C2.97752 15.8416 3.04596 15.8416 3.0589 15.8898C3.14027 16.1921 3.37634 16.4282 3.67859 16.5095Z" fill="#FFC91D"/>
</g>
</g>
</g>
<g id="Group_26">
<g id="Group_27">
<path id="Vector_16" d="M12.0979 1.01855C9.18966 1.01855 6.83203 1.72665 6.83203 2.60021C6.83203 3.47377 9.18966 4.18187 12.0979 4.18187C15.0061 4.18187 17.3637 3.47377 17.3637 2.60021C17.3637 1.72665 15.0061 1.01855 12.0979 1.01855ZM12.0979 3.53762C10.0268 3.53762 8.34788 3.1179 8.34788 2.60012C8.34788 2.08234 10.0268 1.66262 12.0979 1.66262C14.1689 1.66262 15.8479 2.08234 15.8479 2.60012C15.8479 3.1179 14.1689 3.53762 12.0979 3.53762Z" fill="#5E9CF7"/>
</g>
<g id="Group_28">
<g id="Group_29">
<path id="Vector_17" d="M16.8446 1.91455C16.877 1.98552 16.8951 2.05789 16.8951 2.13149C16.8951 3.00496 14.5375 3.71314 11.6293 3.71314C9.53903 3.71314 7.73322 3.34733 6.88281 2.81727C7.23513 3.58808 9.43506 4.18189 12.098 4.18189C15.0062 4.18189 17.3639 3.4738 17.3639 2.60024C17.3639 2.35461 17.1774 2.12202 16.8446 1.91455Z" fill="#478CF7"/>
</g>
</g>
</g>
</g>
</g>
</svg>
